<svg width="100.00000000000001" height="100.00000000000001" xmlns="http://www.w3.org/2000/svg">

 <g>
  <title>Layer 1</title>
  <path id="svg_16" d="m76.49195,70.14245" opacity="undefined" stroke-width="6" stroke="#ff00ff" fill="none"/>
  <path stroke="#ffffff" transform="translate(1.52672 0) translate(1.52672 0) translate(1.52672 0) translate(1.52672 0) translate(1.52672 0) translate(1.52672 0) translate(1.52672 0) translate(1.52672 0) translate(1.52672 0) translate(1.52672 0) translate(1.52672 0) translate(1.52672 0) translate(1.52672 0) translate(1.52672 0) translate(1.52672 0) translate(1.52672 0) translate(1.52672 0) translate(1.52672 0) translate(1.52672 0) translate(1.52672 0) translate(1.52672 0) translate(1.52672 0) translate(1.52672 0) translate(1.52672 0) translate(1.52672 0) translate(1.52672 0) translate(1.52672 0) translate(1.52672 0) translate(1.52672 0) translate(1.52672 0) translate(1.52672 0) translate(1.52672 0) translate(1.52672 0) translate(1.52672 0) translate(1.52672 0) translate(1.52672 0) translate(1.52672 0) translate(1.52672 0) translate(1.52672 0) translate(1.52672 0) translate(1.52672 0) translate(1.52672 0) translate(1.52672 0) translate(1.52672 0) translate(1.52672 0) translate(1.52672 0) translate(1.52672 0) translate(1.52672 0) translate(1.52672 0) translate(1.52672 0) translate(1.52672 0) translate(1.52672 0) translate(1.52672 0) translate(1.52672 0) translate(1.52672 0) translate(-26.7176 0) translate(-26.7176 0) translate(-26.7176 0) translate(-26.7176 0) translate(-0.00000190735 0) translate(-0.00000190735 0) translate(-23.3588 1.22137) translate(23.2824 0) translate(0.282442 0) translate(-72.3664 -12.8244) translate(0 9.24559) translate(0 0.24559) translate(23.2824 0) translate(0.282442 0) translate(0 0.00000190735) translate(0 0.00000190735) translate(-0.00000190735 0) translate(-0.00000190735 0) translate(26.7176 0) translate(26.7176 0) translate(-9.31298 -4.27481) translate(0 0.00000190735) translate(0 0.00000190735) translate(-0.00000190735 0) translate(-0.00000190735 0) translate(-0.00000190735 0) translate(-0.00000190735 0) translate(0 0.00000190735) translate(0 0.00000190735) translate(-0.00000190735 0) translate(-0.00000190735 0)" id="svg_19" d="m41.99589,65.78816c-0.25217,-0.87902 3.82724,-2.96648 6.79975,-4.74889c2.36002,-1.40949 4.93694,-3.11801 7.39134,-4.62545c2.05155,-1.25995 6.57889,-3.38677 7.08919,-4.76432c0.59619,-1.60937 1.66228,-4.57516 2.80737,-6.78833c0.87108,-1.69123 2.52402,-3.91489 3.42254,-3.95387c0.34845,-0.01512 0.64695,0.79139 0.64695,0.79139c0,0 0.94457,5.37383 3.03603,7.96432c0.83477,1.03641 3.25416,0.9948 4.1439,0.93069c5.93842,-0.4279 10.95303,0.27858 13.73739,0.43176c2.78436,0.15318 8.07582,0.06173 9.2236,-0.29282c0.46273,-0.147 2.09089,-0.5556 3.89729,-1.75843c1.80639,-1.20283 7.3601,-4.72723 8.36082,-5.02644c1.00074,-0.29921 0.95708,1.61476 0.79211,2.08031c-1.81808,5.13122 -6.75345,8.66144 -6.75345,8.66144c0,0 -0.38107,0.75098 -0.20961,1.54423c0.15517,0.7202 2.80034,6.01284 1.41367,5.69174c-0.57635,0.06185 -1.99707,-0.5923 -1.99707,-0.5923c0,0 -1.42547,-0.79232 -2.44533,-1.9161c-0.72137,-0.79919 -1.14147,-2.04051 -1.14147,-2.04051c0,0 -0.32785,-1.00909 -1.29752,-1.30062c-2.34235,-0.70427 -4.09128,0.10064 -4.69286,0.79545c-0.51538,0.59411 -0.19874,1.59461 -0.19874,1.59461c0,0 0.35689,0.49173 -0.08863,0.53253c-1.93267,0.16643 -2.46374,-0.94211 -3.80754,-1.72035c-0.46819,-0.26888 -1.18455,-0.71433 -2.39724,0.20141c-5.2982,2.52743 -2.43971,1.34893 -6.31432,2.95601c-5.01076,2.46667 -14.11121,4.7321 -14.11121,4.7321c0,0 1.21312,1.43365 1.84919,2.42232c0.31574,0.49299 0.30305,0.91796 0.30305,0.91796c0,0 0.31667,0.67525 -0.34299,0.76915c-0.39108,0.05444 -4.19562,-0.57368 -6.2281,-1.36693c-1.71131,-0.6685 -3.06324,-1.64724 -3.06324,-1.64724c0,0 -6.2275,0.50959 -10.22169,0.67287c-2.32647,0.09163 -9.25684,0.05956 -9.60319,-1.14769z" fill="#ffffff"/>
 </g>
</svg>